<?xml version="1.0" encoding="UTF-8" standalone="no"?>
<!-- Created with Inkscape (http://www.inkscape.org/) -->

<svg
   xmlns:dc="http://purl.org/dc/elements/1.1/"
   xmlns:cc="http://creativecommons.org/ns#"
   xmlns:rdf="http://www.w3.org/1999/02/22-rdf-syntax-ns#"
   xmlns:svg="http://www.w3.org/2000/svg"
   xmlns="http://www.w3.org/2000/svg"
   xmlns:sodipodi="http://sodipodi.sourceforge.net/DTD/sodipodi-0.dtd"
   xmlns:inkscape="http://www.inkscape.org/namespaces/inkscape"
   version="1.1"
   id="svg1432"
   width="390"
   height="390"
   viewBox="0 0 390 390"
   sodipodi:docname="colab.svg"
   inkscape:version="0.92.3 (2405546, 2018-03-11)">
  <metadata
     id="metadata1438">
    <rdf:RDF>
      <cc:Work
         rdf:about="">
        <dc:format>image/svg+xml</dc:format>
        <dc:type
           rdf:resource="http://purl.org/dc/dcmitype/StillImage" />
        <dc:title></dc:title>
      </cc:Work>
    </rdf:RDF>
  </metadata>
  <defs
     id="defs1436" />
  <sodipodi:namedview
     pagecolor="#ffffff"
     bordercolor="#666666"
     borderopacity="1"
     objecttolerance="10"
     gridtolerance="10"
     guidetolerance="10"
     inkscape:pageopacity="0"
     inkscape:pageshadow="2"
     inkscape:window-width="1977"
     inkscape:window-height="1166"
     id="namedview1434"
     showgrid="false"
     inkscape:zoom="2.3045915"
     inkscape:cx="156.81536"
     inkscape:cy="195"
     inkscape:window-x="1158"
     inkscape:window-y="547"
     inkscape:window-maximized="0"
     inkscape:current-layer="svg1432" />
  <path
     style="fill:#757575;"
     d="M 128.07519,264.91274 C 97.829179,258.97859 74.563473,234.7843 69.981103,204.5 c -5.304656,-35.0578 17.487654,-69.86369 52.015137,-79.43174 20.07155,-5.56211 47.73262,-0.0314 61.38866,12.27436 l 3.50382,3.15738 -8.69436,13.68544 c -4.7819,7.52698 -9.01034,13.99297 -9.39654,14.36885 -0.38621,0.37588 -2.6005,-0.94147 -4.92066,-2.92744 -6.28468,-5.37945 -13.77195,-7.91423 -23.37716,-7.91423 -10.44355,0 -17.60539,2.70312 -24.95242,9.41789 -14.97179,13.68338 -16.03893,36.85091 -2.41229,52.3708 11.87305,13.52266 34.50574,15.50971 49.87188,4.37854 2.31963,-1.68034 4.55375,-2.67821 4.9647,-2.2175 0.41095,0.46071 4.84687,6.80713 9.8576,14.10315 l 9.11042,13.2655 -4.21995,3.07937 c -15.24836,11.12699 -37.09562,16.24544 -54.64475,12.80237 z M 239.5,265.35946 c -11.31625,-2.31157 -17.1501,-4.16454 -23.58894,-7.49243 -24.56648,-12.69708 -38.93869,-35.91868 -38.99096,-62.99886 -0.0606,-31.37685 18.0501,-57.16769 48.0799,-68.46905 6.98451,-2.62854 8.53098,-2.82517 22.5,-2.86083 13.9126,-0.0355 15.5977,0.1669 23.24488,2.79213 14.41162,4.94742 27.6755,15.13299 36.45521,27.9946 8.43967,12.36349 12.09188,24.2945 12.14493,39.67498 0.0448,12.99971 -1.98377,21.38744 -8.02276,33.17176 -9.92468,19.36678 -27.69696,32.72638 -49.53717,37.2376 -7.13294,1.47335 -17.54945,1.91745 -22.28509,0.9501 z m 24.6965,-37.5407 c 7.25991,-3.38893 14.22377,-10.34842 17.63332,-17.62226 2.36451,-5.04438 2.66938,-6.89851 2.66316,-16.1965 -0.006,-9.40987 -0.28098,-11.01911 -2.64584,-15.5 -6.00577,-11.37961 -15.33549,-18.36416 -27.54515,-20.62124 -15.86998,-2.93372 -32.985,6.2511 -39.89479,21.40964 -2.40077,5.26675 -2.83097,7.50454 -2.82821,14.7116 0.004,10.5783 2.60808,17.76727 9.01829,24.89697 8.38084,9.32152 15.37376,12.18153 28.90272,11.82085 7.32143,-0.19519 10.06244,-0.73588 14.6965,-2.89906 z"
     id="path1444"
     inkscape:connector-curvature="0" />
</svg>
